<svg width="168px" height="150px" viewBox="0 0 168 150" version="1.1" xmlns="http://www.w3.org/2000/svg" xmlns:xlink="http://www.w3.org/1999/xlink">
    <g id="Assets" stroke="none" stroke-width="1" fill="none" fill-rule="evenodd">
        <g id="Webhook" fill="#063B79" fill-rule="nonzero">
            <path d="M89.2531056,14.6509501 C76.6827662,11.7506821 64.1707615,19.6019139 61.2833771,32.2283429 C58.9793031,42.2181629 63.4416236,52.2079829 71.6371355,57.3933084 C73.2120716,58.3893589 74.3203621,59.9713269 74.7578493,61.7876566 C75.1953409,63.6039863 74.8453423,65.5082038 73.8828838,67.0901718 L49.7046635,105.906914 C50.7546239,107.869727 51.3379342,110.125487 51.3379342,112.498437 C51.3379342,120.261785 45.0673482,126.560351 37.3384863,126.560351 C29.6096245,126.560351 23.3390384,120.261785 23.3390384,112.498437 C23.3390384,104.735088 29.6096245,98.4365223 37.3384863,98.4365223 C37.5134812,98.4365223 37.6593088,98.4365223 37.8342992,98.4365223 L58.6293133,65.0101786 C49.1505205,56.1628963 44.5132052,42.6283002 47.6339145,29.0644157 C52.2712299,8.87970255 72.3079388,-3.68813149 92.4029778,0.969875807 C111.623051,5.42281888 123.901736,24.0255596 120.897691,43.2728082 C120.285213,47.1105318 116.727026,49.7178522 112.906341,49.1319391 C109.085657,48.5460261 106.489928,44.9426552 107.073238,41.1049226 C108.939829,29.0644157 101.240135,17.4340373 89.2531056,14.6509501 Z M84.49913,51.5634749 C84.3241351,51.5634749 84.1783075,51.5634749 84.0033126,51.5634749 C76.2744508,51.5634749 70.0038648,45.2649092 70.0038648,37.5015607 C70.0038648,29.7382122 76.2744508,23.4396465 84.0033126,23.4396465 C91.7321745,23.4396465 98.0027605,29.7382122 98.0027605,37.5015607 C98.0027605,39.8745105 97.4194502,42.1302705 96.3694898,44.093083 L117.164508,77.5194267 C130.522311,72.3340967 146.27169,75.1171794 157.062931,85.9858691 C171.64569,100.633696 171.64569,124.363177 157.062931,139.011004 C144.521759,151.608135 125.272518,153.365875 110.864755,144.284222 C107.598214,142.233526 106.606588,137.897773 108.648174,134.587358 C110.68976,131.276944 115.006253,130.310191 118.301962,132.360887 C127.314105,138.014945 139.330301,136.901713 147.175823,129.050481 C156.275459,119.910234 156.275459,105.057342 147.175823,95.9170942 C139.359468,88.0658623 127.314105,86.9526221 118.301962,92.6066888 C116.727026,93.6027393 114.831267,93.9249933 113.023002,93.4855584 C111.214736,93.0461236 109.6398,91.9328923 108.648174,90.3509198 L84.49913,51.5634749 Z M130.668139,126.560351 C125.476681,126.560351 120.956026,123.718669 118.535282,119.529394 L74.0287069,119.529394 C71.3454803,133.679191 60.6125693,145.573229 45.738156,149.030121 C25.6431125,153.688138 5.6063991,141.120295 0.96908377,120.93559 C-3.20158597,102.83087 6.45220175,84.7847454 22.9598858,77.8709692 C26.518078,76.376889 30.6304176,78.0760423 32.1178607,81.6501068 C33.6053038,85.2241713 31.9137029,89.3548604 28.3555064,90.8489406 C18.0309109,95.1554054 12.0228127,106.463521 14.6185464,117.742348 C17.5059352,130.368777 30.0471072,138.220009 42.5882793,135.319741 C53.3795204,132.82961 60.7000668,123.162044 60.6708995,112.498428 C60.6708995,110.623507 61.4000374,108.836471 62.7124856,107.518166 C64.0249339,106.199862 65.8040322,105.46747 67.6706234,105.46747 L118.535282,105.46747 C120.956017,101.278195 125.476672,98.4365133 130.668139,98.4365133 C138.397001,98.4365133 144.667587,104.735079 144.667587,112.498428 C144.667587,120.261776 138.397001,126.560342 130.668139,126.560342 L130.668139,126.560351 Z" id="Shape"></path>
        </g>
    </g>
</svg>
